<svg xmlns="http://www.w3.org/2000/svg" viewBox="0 0 512 512" width="512" height="512">
  <defs>
    <linearGradient id="bgGradient" x1="0%" y1="0%" x2="100%" y2="100%">
      <stop offset="0%" style="stop-color:#1a1a2e;stop-opacity:1" />
      <stop offset="100%" style="stop-color:#16213e;stop-opacity:1" />
    </linearGradient>
    <linearGradient id="waveGradient1" x1="0%" y1="0%" x2="100%" y2="0%">
      <stop offset="0%" style="stop-color:#e8a4b8;stop-opacity:1" />
      <stop offset="50%" style="stop-color:#c9b0de;stop-opacity:1" />
      <stop offset="100%" style="stop-color:#a8d8ea;stop-opacity:1" />
    </linearGradient>
    <linearGradient id="waveGradient2" x1="0%" y1="0%" x2="100%" y2="0%">
      <stop offset="0%" style="stop-color:#e8a4b8;stop-opacity:0.6" />
      <stop offset="50%" style="stop-color:#c9b0de;stop-opacity:0.6" />
      <stop offset="100%" style="stop-color:#a8d8ea;stop-opacity:0.6" />
    </linearGradient>
    <linearGradient id="waveGradient3" x1="0%" y1="0%" x2="100%" y2="0%">
      <stop offset="0%" style="stop-color:#e8a4b8;stop-opacity:0.3" />
      <stop offset="50%" style="stop-color:#c9b0de;stop-opacity:0.3" />
      <stop offset="100%" style="stop-color:#a8d8ea;stop-opacity:0.3" />
    </linearGradient>
    <filter id="glow">
      <feGaussianBlur stdDeviation="6" result="coloredBlur"/>
      <feMerge>
        <feMergeNode in="coloredBlur"/>
        <feMergeNode in="SourceGraphic"/>
      </feMerge>
    </filter>
  </defs>
  
  <rect x="0" y="0" width="512" height="512" rx="96" ry="96" fill="url(#bgGradient)"/>
  
  <g filter="url(#glow)" transform="translate(0, 0)">
    <path d="M 56 256 Q 56 256 56 256" stroke="url(#waveGradient3)" stroke-width="8" fill="none" stroke-linecap="round"/>
    <path d="M 96 256 Q 96 200 96 144 Q 96 200 96 256 Q 96 312 96 368 Q 96 312 96 256" stroke="url(#waveGradient3)" stroke-width="8" fill="none" stroke-linecap="round"/>
    
    <path d="M 156 256 Q 156 180 156 104 Q 156 180 156 256 Q 156 332 156 408 Q 156 332 156 256" stroke="url(#waveGradient2)" stroke-width="10" fill="none" stroke-linecap="round"/>
    
    <path d="M 226 256 Q 226 150 226 44 Q 226 150 226 256 Q 226 362 226 468 Q 226 362 226 256" stroke="url(#waveGradient1)" stroke-width="12" fill="none" stroke-linecap="round"/>
    
    <path d="M 286 256 Q 286 120 286 52 Q 286 120 286 256 Q 286 392 286 460 Q 286 392 286 256" stroke="url(#waveGradient1)" stroke-width="12" fill="none" stroke-linecap="round"/>
    
    <path d="M 356 256 Q 356 180 356 104 Q 356 180 356 256 Q 356 332 356 408 Q 356 332 356 256" stroke="url(#waveGradient2)" stroke-width="10" fill="none" stroke-linecap="round"/>
    
    <path d="M 416 256 Q 416 200 416 144 Q 416 200 416 256 Q 416 312 416 368 Q 416 312 416 256" stroke="url(#waveGradient3)" stroke-width="8" fill="none" stroke-linecap="round"/>
  </g>
  
  <circle cx="256" cy="256" r="16" fill="url(#waveGradient1)" filter="url(#glow)"/>
</svg>
